<svg xmlns="http://www.w3.org/2000/svg" version="1.1" xmlns:xlink="http://www.w3.org/1999/xlink" xmlns:svgjs="http://svgjs.dev/svgjs" width="1440" height="560" preserveAspectRatio="none" viewBox="0 0 1440 560"><g mask="url(&quot;#SvgjsMask1000&quot;)" fill="none"><rect width="1440" height="560" x="0" y="0" fill="#1e3266"></rect><path d="M1560 560L0 560 L0 315.75Q49.93 245.69, 120 295.62Q177.84 281.46, 192 339.29Q245.25 272.54, 312 325.79Q396.25 290.04, 432 374.29Q453.99 324.28, 504 346.28Q556.56 278.83, 624 331.39Q668.78 256.17, 744 300.96Q828.05 265, 864 349.05Q870.87 283.92, 936 290.79Q1001.17 235.97, 1056 301.14Q1126.63 299.77, 1128 370.41Q1173.99 296.4, 1248 342.4Q1293.38 267.78, 1368 313.16Q1389.84 263, 1440 284.84Q1508.06 232.9, 1560 300.96z" fill="#182f5d"></path><path d="M1560 560L0 560 L0 411.18Q67.97 359.15, 120 427.12Q142.22 377.34, 192 399.55Q216.16 351.71, 264 375.87Q317.38 357.25, 336 410.64Q413.71 368.35, 456 446.06Q479.5 397.56, 528 421.05Q595.34 368.39, 648 435.73Q686.04 353.77, 768 391.82Q809.33 313.14, 888 354.47Q937.29 331.76, 960 381.06Q1014.45 363.51, 1032 417.97Q1042.69 356.66, 1104 367.35Q1171.65 315, 1224 382.66Q1274.71 361.37, 1296 412.08Q1342.39 386.48, 1368 432.87Q1409.94 402.81, 1440 444.75Q1465.61 350.36, 1560 375.97z" fill="#25467d"></path><path d="M1464 560L0 560 L0 437.11Q64.31 381.42, 120 445.72Q192.1 445.82, 192 517.92Q250.68 456.6, 312 515.27Q353.64 436.91, 432 478.55Q476.84 451.39, 504 496.24Q513.17 433.41, 576 442.58Q627.95 374.53, 696 426.49Q757.39 415.88, 768 477.27Q815.67 452.94, 840 500.61Q883.46 472.07, 912 515.53Q951.84 435.37, 1032 475.2Q1103.82 427.02, 1152 498.84Q1179.85 406.69, 1272 434.54Q1337.36 379.9, 1392 445.26Q1436.31 417.56, 1464 461.87z" fill="#356cb1"></path><path d="M1464 560L0 560 L0 569.8Q29.03 526.83, 72 555.85Q87.17 499.02, 144 514.19Q191.26 489.46, 216 536.72Q294.38 495.1, 336 573.48Q356.25 473.73, 456 493.97Q500.35 466.32, 528 510.66Q572.99 483.65, 600 528.65Q647.1 503.75, 672 550.84Q723.27 530.11, 744 581.38Q753.72 519.1, 816 528.81Q884.83 477.64, 936 546.47Q951.92 490.39, 1008 506.31Q1050.15 476.46, 1080 518.61Q1161.84 480.44, 1200 562.28Q1241.09 531.37, 1272 572.45Q1314.59 543.04, 1344 585.63Q1382.71 504.34, 1464 543.05z" fill="white"></path></g><defs><mask id="SvgjsMask1000"><rect width="1440" height="560" fill="#ffffff"></rect></mask></defs></svg>